<svg width="221" height="56" viewBox="0 0 221 56" fill="none" xmlns="http://www.w3.org/2000/svg">
<path d="M75.082 21.6194H69.5356C67.5889 21.6194 66.0383 20.0375 66.0383 18.0514C66.0383 16.0653 67.5889 14.4834 69.5356 14.4834H88.1147C90.0614 14.4834 91.612 16.0653 91.612 18.0514C91.612 20.0375 90.0614 21.6194 88.1147 21.6194H82.5683V37.6684C82.5683 39.759 80.8675 41.4873 78.8252 41.4873C76.776 41.4873 75.082 39.752 75.082 37.6684V21.6194Z" fill="#000064"/>
<path d="M95.2874 18.0587C95.2874 16.0726 96.8379 14.4907 98.7847 14.4907C100.731 14.4907 102.282 16.0726 102.282 18.0587V37.9336C102.282 39.9197 100.731 41.5016 98.7847 41.5016C96.8379 41.5016 95.2874 39.9197 95.2874 37.9336V18.0587Z" fill="#000064"/>
<path d="M186.072 14.4902C179.753 14.4902 173.954 19.1105 173.954 26.3232V37.8843C173.954 39.8634 175.559 41.5011 177.499 41.5011C179.439 41.5011 181.044 39.8634 181.044 37.8843V34.156H191.024V37.8843C191.024 39.8634 192.629 41.5011 194.569 41.5011C196.509 41.5011 198.114 39.8634 198.114 37.8843V26.3232C198.107 19.1105 192.308 14.4902 186.072 14.4902ZM181.037 28.2256V26.588C181.037 22.9433 183.244 21.1175 186.072 21.1175C188.818 21.1175 191.017 22.9433 191.017 26.588V28.2256H181.037Z" fill="#000064"/>
<path d="M106.776 27.9888C106.776 20.4486 112.371 14.4834 120.11 14.4834C124.304 14.4834 127.849 16.3162 129.55 18.4068C130.199 19.1734 130.547 20.0863 130.547 20.804C130.547 22.7901 129.051 24.1699 127.097 24.1699C125.697 24.1699 125 23.4034 124.099 22.6438C123.197 21.8772 122.002 21.1176 120.103 21.1176C116.558 21.1176 113.812 24.1769 113.812 27.9958C113.812 31.8216 116.558 34.8739 120.103 34.8739C121.852 34.8739 123.149 34.1631 124.051 33.3966C124.953 32.63 125.697 31.7659 127.097 31.7659C129.044 31.7659 130.547 33.1945 130.547 35.1806C130.547 35.8914 130.199 36.7625 129.55 37.5221C127.849 39.6127 124.406 41.4942 120.11 41.4942C112.371 41.4942 106.776 35.536 106.776 27.9888Z" fill="#000064"/>
<path d="M134.803 25.139C134.803 18.7207 139.099 14.4907 144.543 14.4907C147.439 14.4907 149.987 15.4594 151.783 18.3096C153.532 15.4594 156.128 14.4907 159.024 14.4907C164.468 14.4907 168.764 18.7207 168.764 25.139V37.9266C168.764 39.9127 167.214 41.4946 165.267 41.4946C163.32 41.4946 161.77 39.9127 161.77 37.9266V25.0344C161.77 22.3863 160.322 21.111 158.525 21.111C156.729 21.111 155.281 22.3863 155.281 25.0344V37.9266C155.281 39.9127 153.73 41.4946 151.783 41.4946C149.837 41.4946 148.286 39.9127 148.286 37.9266V25.0344C148.286 22.3863 146.838 21.111 145.042 21.111C143.245 21.111 141.797 22.3863 141.797 25.0344V37.9266C141.797 39.9127 140.247 41.4946 138.3 41.4946C136.353 41.4946 134.803 39.9127 134.803 37.9266V25.139Z" fill="#000064"/>
<path d="M205.767 32.2748C206.669 32.2748 207.318 32.5814 207.864 33.0414C208.916 33.9055 209.661 35.132 211.259 35.132C212.208 35.132 213.007 34.3167 213.007 33.348C213.007 31.7173 211.259 31.2086 209.21 30.4978C206.314 29.4804 202.768 28.1005 202.768 22.6022C202.768 18.1701 206.464 14.4976 211.259 14.4976C215.507 14.4976 219.749 16.9924 219.749 19.9471C219.749 21.7799 218.301 23.2573 216.505 23.2573C215.904 23.2573 215.453 23.104 215.009 22.9019C213.711 22.2398 212.809 20.867 211.266 20.867C210.316 20.867 209.517 21.6823 209.517 22.651C209.517 24.0796 211.313 24.5395 213.41 25.2503C216.409 26.219 220.002 27.6964 220.002 33.0971C220.002 37.6826 216.156 41.5084 211.259 41.5084C206.717 41.5084 202.516 38.6582 202.516 35.5989C202.523 33.7522 203.971 32.2748 205.767 32.2748Z" fill="#000064"/>
<path d="M48.7141 21.184L51.296 18.5498C52.5938 17.2257 53.2427 15.4766 53.2427 13.7274C53.2427 11.9783 52.5938 10.2361 51.296 8.90504C48.7004 6.25692 44.445 6.25692 41.8493 8.90504L32.5803 18.3616L35.3466 21.184H48.7141Z" stroke="#000054"/>
<path d="M51.2968 37.4528L42.0209 27.9893L39.2682 30.8046V44.4564L41.8501 47.0906C43.1479 48.4146 44.8624 49.0836 46.5769 49.0836C48.2914 49.0836 49.999 48.4216 51.3036 47.0906C53.8924 44.4425 53.8924 40.1009 51.2968 37.4528Z" stroke="#000054"/>
<path d="M32.5805 18.3591L39.2608 11.5437V7.81543C39.2608 4.06625 36.2553 1 32.5805 1C28.9057 1 25.9002 4.06625 25.9002 7.81543V11.5437L32.5805 18.3591Z" stroke="#000054"/>
<path d="M48.7137 34.8188H52.3613C54.1987 34.8188 55.8653 34.0523 57.0812 32.8188C58.297 31.5853 59.0416 29.878 59.0416 28.0034C59.0416 24.2542 56.0361 21.188 52.3613 21.188H35.3463L48.7137 34.8188Z" stroke="#000054"/>
<path d="M25.5367 43.6697V47.676C25.5367 51.7049 28.6297 54.9999 32.4116 54.9999C36.1936 54.9999 39.2866 51.7049 39.2866 47.676V28.9995L25.5367 43.6697Z" stroke="#000054"/>
<path d="M42.0216 27.9924L23.3127 8.90504C20.7171 6.25691 16.4685 6.25691 13.8524 8.90504C11.2568 11.5532 11.2568 15.8877 13.8524 18.5358L16.448 21.184H6.67346C2.99179 21.184 0 24.2572 0 27.9924C0 31.7486 2.99179 34.8218 6.67346 34.8218H16.4207L13.8524 37.442C11.2568 40.0901 11.2568 44.4247 13.8524 47.0937C16.4685 49.7419 20.7239 49.7419 23.3127 47.0937L42.0216 27.9924Z" fill="#000064"/>
</svg>
